<svg width="20" height="21" viewBox="0 0 20 21" fill="none" xmlns="http://www.w3.org/2000/svg">
<path d="M19.8043 8.32722H18.9988V8.28572H9.99914V12.2857H15.6504C14.826 14.6142 12.6105 16.2857 9.99914 16.2857C6.68576 16.2857 3.99936 13.5992 3.99936 10.2857C3.99936 6.97222 6.68576 4.28572 9.99914 4.28572C11.5286 4.28572 12.92 4.86272 13.9795 5.80522L16.8079 2.97672C15.022 1.31222 12.633 0.285721 9.99914 0.285721C4.47685 0.285721 -0.000488281 4.76322 -0.000488281 10.2857C-0.000488281 15.8082 4.47685 20.2857 9.99914 20.2857C15.5214 20.2857 19.9988 15.8082 19.9988 10.2857C19.9988 9.61522 19.9298 8.96072 19.8043 8.32722Z" fill="#FFC107"/>
<path d="M1.15283 5.63122L4.43821 8.04072C5.32718 5.83972 7.4801 4.28572 9.9995 4.28572C11.5289 4.28572 12.9204 4.86272 13.9799 5.80522L16.8082 2.97672C15.0223 1.31222 12.6334 0.285721 9.9995 0.285721C6.15865 0.285721 2.82777 2.45422 1.15283 5.63122Z" fill="#FF3D00"/>
<path d="M9.99983 20.2857C12.5827 20.2857 14.9296 19.2972 16.7041 17.6897L13.6092 15.0707C12.5715 15.8599 11.3035 16.2867 9.99983 16.2857C7.39892 16.2857 5.1905 14.6272 4.35854 12.3127L1.09766 14.8252C2.75259 18.0637 6.11347 20.2857 9.99983 20.2857Z" fill="#4CAF50"/>
<path d="M19.8051 8.32722H18.9997V8.28572H10V12.2857H15.6513C15.2569 13.3939 14.5465 14.3623 13.6079 15.0712L13.6094 15.0702L16.7043 17.6892C16.4853 17.8882 19.9996 15.2857 19.9996 10.2857C19.9996 9.61522 19.9306 8.96072 19.8051 8.32722Z" fill="#1976D2"/>
</svg>
