<svg width="23" height="24" viewBox="0 0 23 24" fill="none" xmlns="http://www.w3.org/2000/svg">
<path d="M13.6447 1.47511C12.0859 1.47369 10.5617 1.93413 9.26485 2.79818C7.96805 3.66224 6.95692 4.89109 6.3594 6.32927C5.76188 7.76746 5.6048 9.35036 5.90804 10.8777C6.21128 12.4051 6.96121 13.8083 8.06296 14.9099C9.16472 16.0114 10.5688 16.7618 12.0976 17.0661C13.6263 17.3704 15.2111 17.215 16.6514 16.6194C18.0917 16.0239 19.3228 15.015 20.189 13.7204C21.0552 12.4258 21.5175 10.9036 21.5175 9.34651C21.5081 7.26304 20.6758 5.26748 19.2016 3.79355C17.7274 2.31963 15.7305 1.48645 13.6447 1.47511V1.47511ZM13.6447 0.00146484C15.495 0.00146484 17.3038 0.549542 18.8422 1.57639C20.3807 2.60324 21.5798 4.06273 22.2879 5.77032C22.9959 7.4779 23.1812 9.35688 22.8202 11.1696C22.4593 12.9824 21.5683 14.6475 20.2599 15.9545C18.9515 17.2614 17.2846 18.1514 15.4698 18.512C13.6551 18.8726 11.7741 18.6875 10.0646 17.9802C8.35516 17.2729 6.89406 16.0751 5.86609 14.5383C4.83812 13.0016 4.28944 11.1948 4.28944 9.34651C4.28944 6.86805 5.27508 4.4911 7.02954 2.73857C8.78399 0.98603 11.1635 0.00146484 13.6447 0.00146484Z" fill="white"/>
<path d="M0.20906 21.7754L5.51278 16.4416L6.53467 17.4551L1.23094 22.789C1.16432 22.856 1.08513 22.9093 0.997898 22.9457C0.910667 22.9822 0.817103 23.0011 0.722547 23.0015C0.62799 23.0018 0.534295 22.9835 0.446808 22.9477C0.359321 22.9118 0.279757 22.8592 0.212659 22.7926C0.145561 22.726 0.0922433 22.6469 0.0557494 22.5598C0.0192555 22.4727 0.000298389 22.3792 -3.57314e-05 22.2848C-0.000369852 22.1903 0.0179238 22.0967 0.0538003 22.0093C0.0896769 21.9219 0.142435 21.8424 0.20906 21.7754Z" fill="white"/>
</svg>
