<svg width="25" height="25" viewBox="0 0 25 25" fill="none" xmlns="http://www.w3.org/2000/svg">
<path d="M12.5 0C14.1576 0 15.7473 0.65848 16.9194 1.83058C18.0915 3.00268 18.75 4.5924 18.75 6.25C18.75 7.9076 18.0915 9.49732 16.9194 10.6694C15.7473 11.8415 14.1576 12.5 12.5 12.5C10.8424 12.5 9.25268 11.8415 8.08058 10.6694C6.90848 9.49732 6.25 7.9076 6.25 6.25C6.25 4.5924 6.90848 3.00268 8.08058 1.83058C9.25268 0.65848 10.8424 0 12.5 0V0ZM12.5 15.625C19.4063 15.625 25 18.4219 25 21.875V25H0V21.875C0 18.4219 5.59375 15.625 12.5 15.625Z" fill="white"/>
</svg>
